<?xml version="1.0" encoding="UTF-8" standalone="no"?>
<!-- Created with Inkscape (http://www.inkscape.org/) -->

<svg
   xmlns:dc="http://purl.org/dc/elements/1.1/"
   xmlns:cc="http://creativecommons.org/ns#"
   xmlns:rdf="http://www.w3.org/1999/02/22-rdf-syntax-ns#"
   xmlns:svg="http://www.w3.org/2000/svg"
   xmlns="http://www.w3.org/2000/svg"
   xmlns:sodipodi="http://sodipodi.sourceforge.net/DTD/sodipodi-0.dtd"
   xmlns:inkscape="http://www.inkscape.org/namespaces/inkscape"
   width="265.34912mm"
   height="67.165939mm"
   viewBox="0 0 265.34912 67.165939"
   version="1.1"
   id="svg1421"
   inkscape:version="0.92.4 (5da689c313, 2019-01-14)"
   sodipodi:docname="brand-logo.svg">
  <defs
     id="defs1415" />
  <sodipodi:namedview
     id="base"
     pagecolor="#ffffff"
     bordercolor="#666666"
     borderopacity="1.0"
     inkscape:pageopacity="0.0"
     inkscape:pageshadow="2"
     inkscape:zoom="0.7"
     inkscape:cx="485.52276"
     inkscape:cy="13.595483"
     inkscape:document-units="mm"
     inkscape:current-layer="layer1"
     showgrid="false"
     inkscape:window-width="1366"
     inkscape:window-height="705"
     inkscape:window-x="1672"
     inkscape:window-y="120"
     inkscape:window-maximized="1"
     fit-margin-top="3"
     fit-margin-left="3"
     fit-margin-right="3"
     fit-margin-bottom="3" />
  <metadata
     id="metadata1418">
    <rdf:RDF>
      <cc:Work
         rdf:about="">
        <dc:format>image/svg+xml</dc:format>
        <dc:type
           rdf:resource="http://purl.org/dc/dcmitype/StillImage" />
        <dc:title></dc:title>
      </cc:Work>
    </rdf:RDF>
  </metadata>
  <g
     inkscape:label="Layer 1"
     inkscape:groupmode="layer"
     id="layer1"
     style="display:inline"
     transform="translate(-21.539956,-17.011728)">
    <g
       id="g951">
      <g
         id="g889">
        <path
           inkscape:connector-curvature="0"
           id="path862"
           style="font-style:normal;font-variant:normal;font-weight:normal;font-stretch:normal;font-size:34.54006577px;line-height:1.25;font-family:Nulshock;-inkscape-font-specification:Nulshock;letter-spacing:0px;word-spacing:0px;fill:#000000;fill-opacity:1;stroke:none;stroke-width:0.86350161"
           d="m 119.47676,52.755711 c 1.00166,0 1.48522,-0.483561 1.48522,-1.485223 V 39.975886 h -6.21721 v 6.251752 c 0,0.345401 -0.13816,0.483561 -0.44902,0.483561 h -5.97543 c -2.21057,0 -3.69579,-0.794421 -4.69745,-1.899704 -0.89804,-0.967121 -1.45068,-2.279644 -1.45068,-3.695787 0,-1.554303 0.65626,-3.004985 1.727,-4.006647 1.00166,-0.932582 2.31418,-1.519763 4.42113,-1.519763 h 12.60712 v -6.182672 h -12.60712 c -3.76487,0 -6.56261,1.174362 -8.635018,3.074066 -2.314184,2.141484 -3.764867,5.21555 -3.764867,8.600476 0,3.074066 1.139822,5.837271 3.004986,7.875135 2.141479,2.348725 5.215549,3.799408 9.394899,3.799408 z" />
        <path
           inkscape:connector-curvature="0"
           id="path864"
           style="font-style:normal;font-variant:normal;font-weight:normal;font-stretch:normal;font-size:34.54006577px;line-height:1.25;font-family:Nulshock;-inkscape-font-specification:Nulshock;letter-spacing:0px;word-spacing:0px;fill:#000000;fill-opacity:1;stroke:none;stroke-width:0.86350161"
           d="m 141.08643,52.755711 c 4.17935,0 7.25341,-1.450683 9.3949,-3.799408 1.86516,-2.037864 3.00498,-4.801069 3.00498,-7.875135 0,-3.384926 -1.45068,-6.458992 -3.76487,-8.600476 -2.0724,-1.899704 -4.87015,-3.074066 -8.63501,-3.074066 h -4.90469 c -3.76487,0 -6.56261,1.174362 -8.63502,3.074066 -2.31418,2.141484 -3.76487,5.21555 -3.76487,8.600476 0,3.074066 1.13983,5.837271 3.00499,7.875135 2.14148,2.348725 5.21555,3.799408 9.3949,3.799408 z m 0,-17.166413 c 2.10694,0 3.41946,0.587181 4.42113,1.519763 1.07074,1.001662 1.727,2.452344 1.727,4.006647 0,1.416143 -0.55264,2.728666 -1.45068,3.695787 -1.00167,1.105283 -2.48689,1.796084 -4.69745,1.796084 h -4.90469 c -2.21057,0 -3.69579,-0.690801 -4.69745,-1.796084 -0.89804,-0.967121 -1.45068,-2.279644 -1.45068,-3.695787 0,-1.554303 0.65626,-3.004985 1.727,-4.006647 1.00166,-0.932582 2.31418,-1.519763 4.42113,-1.519763 z" />
        <path
           inkscape:connector-curvature="0"
           id="path866"
           style="font-style:normal;font-variant:normal;font-weight:normal;font-stretch:normal;font-size:34.54006577px;line-height:1.25;font-family:Nulshock;-inkscape-font-specification:Nulshock;letter-spacing:0px;word-spacing:0px;fill:#000000;fill-opacity:1;stroke:none;stroke-width:0.86350161"
           d="m 162.73064,44.466095 h 10.88012 c 1.83062,0 2.55596,0.587181 2.55596,2.072404 v 4.662909 c 0,0.518101 0.0345,1.036202 0.10362,1.554303 h 6.32083 c -0.0691,-0.656262 -0.10362,-1.208903 -0.10362,-2.210565 v -4.662908 c 0,-2.659586 -0.6908,-3.903028 -2.2451,-4.83561 1.65792,-1.208902 2.21056,-2.970445 2.21056,-4.835609 0,-1.761543 -0.72534,-3.384926 -1.86516,-4.593829 -1.27798,-1.347062 -3.10861,-2.210564 -5.97543,-2.210564 h -16.57923 c -1.03621,0 -1.55431,0.483561 -1.55431,1.450683 v 21.898402 h 6.25176 z m 0,-5.31917 v -3.384927 c 0,-0.31086 0.1727,-0.518101 0.5181,-0.518101 h 10.53472 c 0.79442,0 1.34706,0.241781 1.69246,0.621721 0.3454,0.345401 0.5181,0.828962 0.5181,1.312523 0,0.449021 -0.1727,0.863502 -0.44902,1.208902 -0.37994,0.449021 -0.89804,0.759882 -1.76154,0.759882 z" />
        <path
           inkscape:connector-curvature="0"
           id="path868"
           style="font-style:normal;font-variant:normal;font-weight:normal;font-stretch:normal;font-size:34.54006577px;line-height:1.25;font-family:Nulshock;-inkscape-font-specification:Nulshock;letter-spacing:0px;word-spacing:0px;fill:#000000;fill-opacity:1;stroke:none;stroke-width:0.86350161"
           d="m 195.57122,46.780279 c -0.27632,0 -0.41448,-0.13816 -0.41448,-0.31086 0,-0.103621 0.0691,-0.207241 0.20724,-0.310861 L 207.9711,36.76366 c 1.03621,-0.759881 1.38161,-1.243442 1.62339,-1.796083 0.24178,-0.552641 0.37994,-1.139822 0.37994,-1.761544 0,-0.863501 -0.37994,-1.830623 -1.07074,-2.555964 -0.6908,-0.725342 -1.65793,-1.243443 -3.41947,-1.243443 h -20.13686 v 6.182672 h 14.81769 c 0.1727,0 0.27632,0.13816 0.27632,0.27632 0,0.06908 -0.0345,0.172701 -0.10362,0.207241 l -12.53804,8.807717 c -0.89805,0.621721 -1.31253,0.932581 -1.62339,1.277982 -0.6908,0.828962 -1.00166,1.727003 -1.00166,2.555965 0,0.932582 0.31086,1.796083 0.8635,2.521425 0.6908,0.898041 1.79609,1.519763 3.62671,1.519763 h 20.58588 v -5.975432 z" />
        <path
           inkscape:connector-curvature="0"
           id="path870"
           style="font-style:normal;font-variant:normal;font-weight:normal;font-stretch:normal;font-size:34.54006577px;line-height:1.25;font-family:Nulshock;-inkscape-font-specification:Nulshock;letter-spacing:0px;word-spacing:0px;fill:#000000;fill-opacity:1;stroke:none;stroke-width:0.86350161"
           d="m 228.78581,52.755711 c 4.17935,0 7.25342,-1.450683 9.3949,-3.799408 1.86517,-2.037864 3.00499,-4.801069 3.00499,-7.875135 0,-3.384926 -1.45069,-6.458992 -3.76487,-8.600476 -2.0724,-1.899704 -4.87015,-3.074066 -8.63502,-3.074066 h -4.90469 c -3.76486,0 -6.56261,1.174362 -8.63501,3.074066 -2.31419,2.141484 -3.76487,5.21555 -3.76487,8.600476 0,3.074066 1.13982,5.837271 3.00499,7.875135 2.14148,2.348725 5.21555,3.799408 9.39489,3.799408 z m 0,-17.166413 c 2.10695,0 3.41947,0.587181 4.42113,1.519763 1.07074,1.001662 1.72701,2.452344 1.72701,4.006647 0,1.416143 -0.55265,2.728666 -1.45069,3.695787 -1.00166,1.105283 -2.48688,1.796084 -4.69745,1.796084 h -4.90469 c -2.21056,0 -3.69578,-0.690801 -4.69744,-1.796084 -0.89805,-0.967121 -1.45069,-2.279644 -1.45069,-3.695787 0,-1.554303 0.65626,-3.004985 1.72701,-4.006647 1.00166,-0.932582 2.31418,-1.519763 4.42112,-1.519763 z m -1.93424,-15.57757 -4.11027,7.875135 h 5.21555 l 5.45733,-7.875135 z" />
        <path
           inkscape:connector-curvature="0"
           id="path872"
           style="font-style:normal;font-variant:normal;font-weight:normal;font-stretch:normal;font-size:34.54006577px;line-height:1.25;font-family:Nulshock;-inkscape-font-specification:Nulshock;letter-spacing:0px;word-spacing:0px;fill:#000000;fill-opacity:1;stroke:none;stroke-width:0.86350161"
           d="m 263.13051,34.449476 c 0.37994,0 0.62172,0.1727 0.75988,0.690801 l 3.35039,12.883445 c 0.93258,3.523086 3.07406,5.21555 6.59715,5.21555 4.21389,0 6.28629,-2.106944 6.83893,-5.18101 l 3.10861,-17.546354 c 0.0691,-0.483561 0.10362,-0.759881 0.10362,-1.105282 h -6.52808 c 0,0.207241 0,0.552641 -0.0691,0.898042 l -2.65958,15.95751 c -0.10362,0.552641 -0.3454,0.794422 -0.82896,0.794422 -0.41448,0 -0.6908,-0.172701 -0.82896,-0.725342 l -3.48855,-12.710744 c -0.8635,-3.177686 -2.62505,-4.731989 -6.35537,-4.731989 -3.76487,0 -5.63003,1.554303 -6.59715,4.904689 l -3.55763,12.538044 c -0.13816,0.552641 -0.41448,0.725342 -0.82896,0.725342 -0.48356,0 -0.75988,-0.241781 -0.82896,-0.794422 l -2.45235,-15.95751 c -0.0345,-0.310861 -0.0691,-0.656261 -0.0691,-0.898042 h -6.59715 c 0,0.345401 0.0345,0.656261 0.10362,1.105282 l 2.90136,17.511814 c 0.48356,2.970445 2.52143,5.21555 6.76986,5.21555 3.59216,0 5.76819,-1.623384 6.76985,-5.21555 l 3.62671,-12.883445 c 0.13816,-0.518101 0.37994,-0.690801 0.75988,-0.690801 z" />
      </g>
      <g
         id="g926">
        <g
           aria-label="SMART"
           style="font-style:normal;font-variant:normal;font-weight:300;font-stretch:expanded;font-size:16.9799633px;line-height:1.25;font-family:Mesmerize;-inkscape-font-specification:'Mesmerize, Light Expanded';font-variant-ligatures:normal;font-variant-caps:normal;font-variant-numeric:normal;font-feature-settings:normal;text-align:start;letter-spacing:0px;word-spacing:0px;writing-mode:lr-tb;text-anchor:start;fill:#000000;fill-opacity:1;stroke:none;stroke-width:0.62421602"
           id="text1409">
          <path
             d="m 109.31411,65.318913 c -1.78289,-0.764098 -3.82049,-1.188597 -6.0109,-1.188597 -3.616735,0 -6.129769,1.154637 -6.129769,3.497872 0,1.748936 1.392357,2.597935 3.548809,3.124313 1.59612,0.39054 3.82049,0.662219 5.14493,0.950878 1.8678,0.407519 2.4621,1.001818 2.4621,2.020616 0,1.613097 -1.47726,2.496055 -4.43177,2.496055 -1.85082,0 -4.516674,-0.3396 -6.52031,-1.171618 l -0.356579,1.205578 c 2.054576,0.933898 4.975129,1.205577 6.775009,1.205577 3.99029,0 6.14674,-1.341417 6.14674,-3.701632 0,-1.630077 -1.03577,-2.394175 -3.20921,-2.954514 -1.64706,-0.424499 -3.90539,-0.713158 -5.31473,-1.035777 -1.901754,-0.4245 -2.631893,-0.984838 -2.631893,-2.020616 0,-1.613097 1.714973,-2.377195 4.329893,-2.377195 2.00363,0 4.02425,0.458459 5.84111,1.154638 z"
             style="font-style:normal;font-variant:normal;font-weight:300;font-stretch:expanded;font-size:16.9799633px;font-family:Mesmerize;-inkscape-font-specification:'Mesmerize, Light Expanded';font-variant-ligatures:normal;font-variant-caps:normal;font-variant-numeric:normal;font-feature-settings:normal;text-align:start;writing-mode:lr-tb;text-anchor:start;stroke-width:0.62421602"
             id="path895"
             inkscape:connector-curvature="0" />
          <path
             d="m 112.95526,64.130316 v 13.159471 h 1.52819 v -9.11824 l 6.62219,9.28804 h 0.28866 l 6.8599,-9.35596 v 9.18616 h 1.5282 V 64.130316 h -0.32262 l -8.16736,10.986036 -8.04851,-10.986036 z"
             style="font-style:normal;font-variant:normal;font-weight:300;font-stretch:expanded;font-size:16.9799633px;font-family:Mesmerize;-inkscape-font-specification:'Mesmerize, Light Expanded';font-variant-ligatures:normal;font-variant-caps:normal;font-variant-numeric:normal;font-feature-settings:normal;text-align:start;writing-mode:lr-tb;text-anchor:start;stroke-width:0.62421602"
             id="path897"
             inkscape:connector-curvature="0" />
          <path
             d="m 139.91837,64.130316 -7.94662,13.159471 h 1.698 l 2.32625,-3.922371 h 8.09944 l 2.32626,3.922371 h 1.76592 l -7.92965,-13.159471 z m 0.13584,2.445114 3.42996,5.773188 h -6.87689 z"
             style="font-style:normal;font-variant:normal;font-weight:300;font-stretch:expanded;font-size:16.9799633px;font-family:Mesmerize;-inkscape-font-specification:'Mesmerize, Light Expanded';font-variant-ligatures:normal;font-variant-caps:normal;font-variant-numeric:normal;font-feature-settings:normal;text-align:start;writing-mode:lr-tb;text-anchor:start;stroke-width:0.62421602"
             id="path899"
             inkscape:connector-curvature="0" />
          <path
             d="m 150.36424,64.300115 v 12.989672 h 1.59611 V 71.61848 h 5.14493 l 4.89023,5.671307 h 1.83384 l -5.07701,-5.824127 c 2.15645,-0.475439 3.10733,-1.969676 3.10733,-3.514853 0,-1.901755 -1.42631,-3.650692 -4.66949,-3.650692 z m 1.59611,1.290478 h 5.00909 c 2.32626,0 3.29412,1.171617 3.29412,2.496054 0,1.290477 -0.95088,2.479075 -3.29412,2.479075 h -5.00909 z"
             style="font-style:normal;font-variant:normal;font-weight:300;font-stretch:expanded;font-size:16.9799633px;font-family:Mesmerize;-inkscape-font-specification:'Mesmerize, Light Expanded';font-variant-ligatures:normal;font-variant-caps:normal;font-variant-numeric:normal;font-feature-settings:normal;text-align:start;writing-mode:lr-tb;text-anchor:start;stroke-width:0.62421602"
             id="path901"
             inkscape:connector-curvature="0" />
          <path
             d="m 164.84443,64.300115 v 1.290478 h 5.63735 v 11.699194 h 1.59611 V 65.590593 h 5.63735 v -1.290478 z"
             style="font-style:normal;font-variant:normal;font-weight:300;font-stretch:expanded;font-size:16.9799633px;font-family:Mesmerize;-inkscape-font-specification:'Mesmerize, Light Expanded';font-variant-ligatures:normal;font-variant-caps:normal;font-variant-numeric:normal;font-feature-settings:normal;text-align:start;writing-mode:lr-tb;text-anchor:start;stroke-width:0.62421602"
             id="path903"
             inkscape:connector-curvature="0" />
        </g>
        <g
           aria-label="CITY"
           style="font-style:normal;font-variant:normal;font-weight:600;font-stretch:expanded;font-size:17.9368515px;line-height:1.25;font-family:Mesmerize;-inkscape-font-specification:'Mesmerize, Semi-Bold Expanded';font-variant-ligatures:normal;font-variant-caps:normal;font-variant-numeric:normal;font-feature-settings:normal;text-align:start;letter-spacing:0px;word-spacing:0px;writing-mode:lr-tb;text-anchor:start;fill:#000000;fill-opacity:1;stroke:none;stroke-width:0.49651739"
           id="text1413">
          <path
             d="m 198.42405,65.101824 c -1.75781,-1.130021 -4.10754,-1.919243 -6.92362,-1.919243 -5.18375,0 -8.95049,2.654654 -8.95049,6.941562 0,4.304844 3.80261,7.138867 8.91461,7.138867 2.88783,0 5.70392,-0.91478 7.12093,-2.887834 l -2.63672,-1.847495 c -0.78922,1.094148 -2.45734,1.883369 -4.60977,1.883369 -2.85196,0 -5.36311,-1.381137 -5.36311,-4.197223 0,-2.780212 2.47528,-4.179286 5.38105,-4.179286 2.0448,0 3.58737,0.699537 4.84295,1.488758 z"
             style="font-style:normal;font-variant:normal;font-weight:600;font-stretch:expanded;font-size:17.9368515px;font-family:Mesmerize;-inkscape-font-specification:'Mesmerize, Semi-Bold Expanded';font-variant-ligatures:normal;font-variant-caps:normal;font-variant-numeric:normal;font-feature-settings:normal;text-align:start;writing-mode:lr-tb;text-anchor:start;stroke-width:0.49651739"
             id="path906"
             inkscape:connector-curvature="0" />
          <path
             d="m 201.39484,63.36195 v 13.721691 h 3.42594 V 63.36195 Z"
             style="font-style:normal;font-variant:normal;font-weight:600;font-stretch:expanded;font-size:17.9368515px;font-family:Mesmerize;-inkscape-font-specification:'Mesmerize, Semi-Bold Expanded';font-variant-ligatures:normal;font-variant-caps:normal;font-variant-numeric:normal;font-feature-settings:normal;text-align:start;writing-mode:lr-tb;text-anchor:start;stroke-width:0.49651739"
             id="path908"
             inkscape:connector-curvature="0" />
          <path
             d="m 207.32269,63.36195 v 2.851959 h 5.05819 v 10.869732 h 3.44388 V 66.213909 h 5.09406 V 63.36195 Z"
             style="font-style:normal;font-variant:normal;font-weight:600;font-stretch:expanded;font-size:17.9368515px;font-family:Mesmerize;-inkscape-font-specification:'Mesmerize, Semi-Bold Expanded';font-variant-ligatures:normal;font-variant-caps:normal;font-variant-numeric:normal;font-feature-settings:normal;text-align:start;writing-mode:lr-tb;text-anchor:start;stroke-width:0.49651739"
             id="path910"
             inkscape:connector-curvature="0" />
          <path
             d="m 221.90171,63.36195 6.90569,6.672508 v 7.049183 h 3.42593 v -7.12093 l 6.83394,-6.600761 h -3.82054 l -4.73533,4.502149 -4.66358,-4.502149 z"
             style="font-style:normal;font-variant:normal;font-weight:600;font-stretch:expanded;font-size:17.9368515px;font-family:Mesmerize;-inkscape-font-specification:'Mesmerize, Semi-Bold Expanded';font-variant-ligatures:normal;font-variant-caps:normal;font-variant-numeric:normal;font-feature-settings:normal;text-align:start;writing-mode:lr-tb;text-anchor:start;stroke-width:0.49651739"
             id="path912"
             inkscape:connector-curvature="0" />
        </g>
      </g>
      <g
         id="g5797"
         style="display:inline"
         transform="matrix(0.41209068,0,0,0.41209068,1.8385276,-15.405485)">
        <path
           inkscape:connector-curvature="0"
           id="path2028-4"
           d="m 184.52411,178.65228 c -0.5674,-0.37079 -1.6164,-1.40864 -2.33111,-2.30634 -2.91502,-3.66133 -4.98475,-9.65656 -7.68816,-22.26967 -1.94576,-9.0782 -3.64619,-16.00044 -4.40577,-17.93532 -0.97361,-2.48007 -0.44337,-2.67576 1.92029,-0.70871 3.0457,2.53466 7.3294,4.28288 11.66285,4.75973 2.66824,0.2936 3.84035,0.24127 7.04883,-0.31471 1.32831,-0.23017 1.72619,-0.22055 1.89077,0.0458 0.52551,0.8503 0.8631,6.4718 0.71625,11.92717 -0.13278,4.93301 -0.25862,6.17888 -0.97314,9.63441 -0.45136,2.18282 -1.36251,5.5761 -2.02479,7.54063 -1.17367,3.48147 -3.99924,9.81597 -4.52286,10.13959 -0.14384,0.0889 -0.72576,-0.14175 -1.29316,-0.51254 z m -1.36566,-41.65335 c -7.70771,-1.38099 -13.73721,-6.95758 -15.65842,-14.48222 -2.92867,-11.47048 5.77312,-23.037876 17.71224,-23.545087 9.07839,-0.385678 17.09754,5.580107 19.47879,14.491107 0.68428,2.56068 0.62881,6.7118 -0.12532,9.37773 -1.89678,6.70538 -6.95012,11.79176 -13.53988,13.6284 -2.31016,0.64387 -5.88718,0.88488 -7.86741,0.53007 z M 157.42746,117.7328 c -3.4217,-3.43995 -8.79746,-8.75476 -11.94614,-11.8107 -3.14867,-3.05593 -6.51227,-6.567233 -7.47465,-7.802877 -2.3344,-2.997224 -3.86241,-6.101272 -4.05636,-8.24023 l -0.14845,-1.637072 2.7526,0.172506 c 6.93337,0.434516 14.80548,2.50722 21.39196,5.63244 4.83327,2.293337 12.18953,7.029263 12.18125,7.842233 -0.002,0.18086 -0.66346,1.14894 -1.47027,2.15128 -1.73907,2.16056 -2.95766,4.49271 -3.95557,7.57027 -0.64462,1.98797 -0.73269,2.6788 -0.75889,5.95312 -0.0163,2.03729 0.0708,4.32924 0.19363,5.09323 0.17712,1.10197 0.14978,1.38298 -0.13229,1.35965 -0.19555,-0.0162 -3.15512,-2.8439 -6.57682,-6.28385 z"
           style="fill:#1ba246;fill-opacity:1;stroke-width:0.26458332" />
        <path
           inkscape:connector-curvature="0"
           id="path2028-8-2"
           d="m 126.94472,89.947457 c -0.026,0.677312 -0.37646,2.110759 -0.77862,3.185445 -1.64022,4.383193 -5.71668,9.242088 -15.14229,18.048748 -6.784,6.33851 -11.845396,11.3576 -13.1139,13.0043 -1.625923,2.1107 -2.066498,1.75666 -1.595569,-1.28215 0.606824,-3.91569 -0.0976,-8.48843 -1.917869,-12.44986 -1.120803,-2.43914 -1.768628,-3.41736 -3.895894,-5.88277 -0.880682,-1.02068 -1.077107,-1.36682 -0.933362,-1.64498 0.458838,-0.88805 5.105849,-4.069318 9.8596,-6.749705 4.298584,-2.423745 5.431684,-2.956731 8.762504,-4.12157 2.10405,-0.735816 5.48265,-1.70002 7.50799,-2.142662 3.58927,-0.784419 10.47487,-1.619963 11.02175,-1.33741 0.15022,0.07762 0.25175,0.695298 0.22567,1.372599 z M 91.927738,112.54565 c 2.780696,7.32007 1.100197,15.3593 -4.364201,20.87759 -8.329876,8.41204 -22.725723,6.90033 -29.302329,-3.07705 -5.000787,-7.58671 -4.010042,-17.53234 2.406572,-24.15832 1.843888,-1.90405 5.432183,-3.99186 8.106265,-4.71657 6.725874,-1.822764 13.687168,-0.10582 18.65203,4.60039 1.740522,1.64983 3.787268,4.59329 4.501663,6.47396 z m -3.28513,31.97617 c -1.189732,4.7038 -2.982045,12.04776 -3.982916,16.31989 -1.000869,4.27215 -2.281673,8.96282 -2.846228,10.42374 -1.369395,3.54367 -3.245218,6.45075 -4.979691,7.71739 l -1.327494,0.96944 -1.268043,-2.4492 c -3.194011,-6.16919 -5.466105,-13.98608 -6.174275,-21.24192 -0.519669,-5.32446 -0.24258,-14.06898 0.458832,-14.48009 0.156126,-0.0913 1.326549,-0.0226 2.601143,0.15418 2.747374,0.3799 5.374148,0.2252 8.526623,-0.50219 2.036387,-0.46982 2.674103,-0.74968 5.495442,-2.4116 1.755448,-1.03402 3.676084,-2.28773 4.268055,-2.78606 0.853871,-0.71877 1.108912,-0.83988 1.234008,-0.586 0.08669,0.17605 -0.815727,4.1686 -2.005456,8.87242 z"
           style="display:inline;fill:#f2110f;fill-opacity:1;stroke-width:0.26458332" />
        <path
           inkscape:connector-curvature="0"
           id="path2028-8-3-3"
           d="m 78.998604,184.31878 c 0.600644,-0.3141 2.018575,-0.72276 3.150972,-0.90812 4.61856,-0.75605 10.861098,0.36522 23.188334,4.16499 8.87244,2.73485 15.74363,4.63106 17.80306,4.91298 2.63971,0.36138 2.55156,0.91965 -0.3192,2.02186 -3.69916,1.42024 -7.31651,4.30486 -9.84867,7.85372 -1.55911,2.18514 -2.08578,3.23357 -3.1673,6.30502 -0.44774,1.27157 -0.65042,1.6141 -0.96322,1.62766 -0.99864,0.0434 -6.06923,-2.40696 -10.758299,-5.19897 -4.240087,-2.52466 -5.265884,-3.24283 -7.932542,-5.55371 -1.684497,-1.45975 -4.200822,-3.91183 -5.591823,-5.44907 -2.465075,-2.72425 -6.613345,-8.28317 -6.640074,-8.89814 -0.0074,-0.16893 0.47811,-0.56412 1.078727,-0.87824 z m 37.016746,19.14751 c 4.96881,-6.05199 12.77958,-8.59075 20.28428,-6.59307 11.44009,3.04525 17.2856,16.28744 11.89837,26.9541 -4.0964,8.11082 -13.21833,12.19585 -22.15753,9.92268 -2.56878,-0.65322 -6.16427,-2.72862 -8.12253,-4.68851 -4.92543,-4.9295 -6.89664,-11.8231 -5.28166,-18.47067 0.56615,-2.33041 2.10249,-5.56969 3.37907,-7.12453 z m 29.37751,-13.04719 c 4.67279,-1.30632 11.93587,-3.40239 16.14022,-4.65796 4.20434,-1.25556 8.91099,-2.47632 10.45924,-2.7128 3.75549,-0.57364 7.21046,-0.3914 9.17178,0.4838 l 1.50111,0.66984 -1.49463,2.31788 c -3.76475,5.83842 -9.41749,11.69613 -15.36097,15.91795 -4.36143,3.09805 -12.08641,7.20513 -12.79183,6.80093 -0.15686,-0.09 -0.67868,-1.14001 -1.15943,-2.33354 -1.03628,-2.57264 -2.47646,-4.77486 -4.6749,-7.14848 -1.42007,-1.53329 -1.97994,-1.94747 -4.82459,-3.56918 -1.76994,-1.00903 -3.8126,-2.05218 -4.53929,-2.31804 -1.04815,-0.38352 -1.28003,-0.54459 -1.12193,-0.77936 0.10963,-0.16275 4.02244,-1.36473 8.69522,-2.67104 z"
           style="display:inline;fill:#812ea2;fill-opacity:1;stroke-width:0.26458332" />
      </g>
    </g>
  </g>
</svg>
