<?xml version="1.0" encoding="UTF-8" standalone="no"?>
<!-- Created with Inkscape (http://www.inkscape.org/) -->

<svg
   xmlns:dc="http://purl.org/dc/elements/1.1/"
   xmlns:cc="http://creativecommons.org/ns#"
   xmlns:rdf="http://www.w3.org/1999/02/22-rdf-syntax-ns#"
   xmlns:svg="http://www.w3.org/2000/svg"
   xmlns="http://www.w3.org/2000/svg"
   xmlns:sodipodi="http://sodipodi.sourceforge.net/DTD/sodipodi-0.dtd"
   xmlns:inkscape="http://www.inkscape.org/namespaces/inkscape"
   width="158.97707mm"
   height="49.970867mm"
   viewBox="0 0 158.97707 49.970867"
   version="1.1"
   id="svg1583"
   inkscape:version="0.92.4 (5da689c313, 2019-01-14)"
   sodipodi:docname="brand-logo.svg">
  <defs
     id="defs1577" />
  <sodipodi:namedview
     id="base"
     pagecolor="#ffffff"
     bordercolor="#666666"
     borderopacity="1.0"
     inkscape:pageopacity="0.0"
     inkscape:pageshadow="2"
     inkscape:zoom="0.7"
     inkscape:cx="302.41398"
     inkscape:cy="73.545208"
     inkscape:document-units="mm"
     inkscape:current-layer="layer1"
     showgrid="false"
     inkscape:window-width="1366"
     inkscape:window-height="705"
     inkscape:window-x="1672"
     inkscape:window-y="120"
     inkscape:window-maximized="1"
     fit-margin-top="3"
     fit-margin-left="3"
     fit-margin-right="3"
     fit-margin-bottom="3" />
  <metadata
     id="metadata1580">
    <rdf:RDF>
      <cc:Work
         rdf:about="">
        <dc:format>image/svg+xml</dc:format>
        <dc:type
           rdf:resource="http://purl.org/dc/dcmitype/StillImage" />
        <dc:title></dc:title>
      </cc:Work>
    </rdf:RDF>
  </metadata>
  <g
     inkscape:label="Layer 1"
     inkscape:groupmode="layer"
     id="layer1"
     transform="translate(-14.932651,-21.436838)">
    <g
       id="g2288">
      <path
         d="m 40.674686,32.247889 c 0.232062,0 0.319085,0.115605 0.319085,0.423886 v 3.737895 h 0.232061 l 5.540471,-2.735985 v -7.283116 c 0,-0.7707 -0.26107,-1.15605 -0.841223,-1.15605 H 17.932651 v 0.308279 l 1.943515,6.705091 h 8.760326 v 21.040113 h 5.975585 V 32.247889 Z"
         style="font-style:normal;font-variant:normal;font-weight:bold;font-stretch:normal;font-size:33.43369293px;line-height:1.25;font-family:Recharge;-inkscape-font-specification:'Recharge, Bold';font-variant-ligatures:normal;font-variant-caps:normal;font-variant-numeric:normal;font-feature-settings:normal;text-align:start;letter-spacing:0px;word-spacing:0px;writing-mode:lr-tb;text-anchor:start;fill:#13406b;fill-opacity:1;stroke:none;stroke-width:0.15352827"
         id="path2166"
         inkscape:connector-curvature="0" />
      <path
         d="M 83.158725,53.288002 V 26.390569 c 0,-0.7707 -0.261069,-1.15605 -0.812216,-1.15605 h -9.427502 c -0.667177,0 -1.015269,0.38535 -1.189315,1.040445 l -5.221386,20.038203 c -0.029,0.15414 -0.08702,0.23121 -0.232062,0.23121 h -0.522138 c -0.174046,0 -0.261069,-0.07707 -0.290077,-0.23121 L 60.271651,26.274964 c -0.174046,-0.655095 -0.551146,-1.040445 -1.218323,-1.040445 h -9.543533 c -0.551146,0 -0.812215,0.38535 -0.812215,1.15605 v 26.897433 h 5.598485 V 32.209354 c 0,-0.38535 0.174046,-0.61656 0.464123,-0.61656 h 0.290077 c 0.290077,0 0.464123,0.192676 0.551146,0.500955 l 5.743525,20.307948 c 0.203054,0.693631 0.493131,0.886305 1.131301,0.886305 h 6.874824 c 0.609161,0 0.928246,-0.192674 1.1313,-0.886305 l 5.772532,-20.307948 c 0.08702,-0.308279 0.261069,-0.500955 0.522138,-0.500955 h 0.319085 c 0.290077,0 0.435115,0.23121 0.435115,0.61656 v 21.078648 z"
         style="font-style:normal;font-variant:normal;font-weight:bold;font-stretch:normal;font-size:33.43369293px;line-height:1.25;font-family:Recharge;-inkscape-font-specification:'Recharge, Bold';font-variant-ligatures:normal;font-variant-caps:normal;font-variant-numeric:normal;font-feature-settings:normal;text-align:start;letter-spacing:0px;word-spacing:0px;writing-mode:lr-tb;text-anchor:start;fill:#13406b;fill-opacity:1;stroke:none;stroke-width:0.15352827"
         id="path2168"
         inkscape:connector-curvature="0" />
      <path
         d="m 105.06679,45.542466 c 0,0.269746 -0.11604,0.46242 -0.31909,0.46242 H 94.740044 c -2.291607,0 -3.161837,-1.156049 -3.161837,-4.54713 v -4.932481 c 0,-3.429616 0.87023,-4.470061 3.161837,-4.470061 h 10.094686 c 0.17404,0 0.26106,0.115606 0.26106,0.38535 v 2.697451 h 0.23207 l 5.54046,-2.697451 v -6.049995 c 0,-0.7707 -0.26107,-1.15605 -0.84122,-1.15605 H 94.217902 c -6.294669,0 -8.615283,4.354455 -8.615283,11.136616 v 5.780251 c 0,6.782161 2.320614,11.136616 8.615283,11.136616 h 15.896228 c 0.52213,0 0.72519,-0.38535 0.72519,-1.078979 V 38.452026 h -5.91757 v 0.346815 c 0.087,0.655095 0.14504,1.657005 0.14504,2.46624 z"
         style="font-style:normal;font-variant:normal;font-weight:bold;font-stretch:normal;font-size:33.43369293px;line-height:1.25;font-family:Recharge;-inkscape-font-specification:'Recharge, Bold';font-variant-ligatures:normal;font-variant-caps:normal;font-variant-numeric:normal;font-feature-settings:normal;text-align:start;letter-spacing:0px;word-spacing:0px;writing-mode:lr-tb;text-anchor:start;fill:#13406b;fill-opacity:1;stroke:none;stroke-width:0.15352827"
         id="path2170"
         inkscape:connector-curvature="0" />
      <g
         id="text821-2"
         style="font-style:normal;font-variant:normal;font-weight:normal;font-stretch:expanded;font-size:9.11436653px;line-height:1.25;font-family:'Exo 2';-inkscape-font-specification:'Exo 2, weight=255 Expanded';font-variant-ligatures:normal;font-variant-caps:normal;font-variant-numeric:normal;font-feature-settings:normal;text-align:start;letter-spacing:0px;word-spacing:0px;writing-mode:lr-tb;text-anchor:start;fill:#13406b;fill-opacity:1;stroke:#13406b;stroke-width:0.22785968;stroke-opacity:1"
         aria-label="TWOJE
MIASTO
GORZÓW">
        <path
           inkscape:connector-curvature="0"
           id="path2176"
           style="font-style:normal;font-variant:normal;font-weight:normal;font-stretch:expanded;font-size:9.11436653px;font-family:'Exo 2';-inkscape-font-specification:'Exo 2, weight=255 Expanded';font-variant-ligatures:normal;font-variant-caps:normal;font-variant-numeric:normal;font-feature-settings:normal;text-align:start;writing-mode:lr-tb;text-anchor:start;fill:#13406b;fill-opacity:1;stroke:#13406b;stroke-width:0.22785968;stroke-opacity:1"
           d="m 130.27462,25.380176 v -0.710921 h -6.19777 v 0.710921 h 2.68874 v 5.577992 h 0.81117 v -5.577992 z" />
        <path
           inkscape:connector-curvature="0"
           id="path2178"
           style="font-style:normal;font-variant:normal;font-weight:normal;font-stretch:expanded;font-size:9.11436653px;font-family:'Exo 2';-inkscape-font-specification:'Exo 2, weight=255 Expanded';font-variant-ligatures:normal;font-variant-caps:normal;font-variant-numeric:normal;font-feature-settings:normal;text-align:start;writing-mode:lr-tb;text-anchor:start;fill:#13406b;fill-opacity:1;stroke:#13406b;stroke-width:0.22785968;stroke-opacity:1"
           d="m 141.24176,24.669255 h -0.84763 l -1.47653,4.912644 c -0.0638,0.246088 -0.11849,0.510404 -0.18229,0.765606 h -0.29166 c -0.0547,-0.255202 -0.10937,-0.510404 -0.18229,-0.774721 l -1.41272,-4.639212 c -0.0456,-0.154944 -0.16406,-0.264317 -0.33723,-0.264317 h -0.91144 c -0.17317,0 -0.30077,0.109373 -0.32812,0.264317 l -1.42184,4.639212 c -0.0729,0.246088 -0.1276,0.492176 -0.18229,0.774721 h -0.30077 c -0.0638,-0.282545 -0.10937,-0.537747 -0.17317,-0.774721 l -1.4583,-4.903529 h -0.85675 l 1.80464,6.051939 c 0.0365,0.136716 0.16406,0.236974 0.32812,0.236974 h 0.97524 c 0.15494,0 0.30077,-0.100258 0.33723,-0.246088 l 1.40361,-4.730356 c 0.0729,-0.227859 0.1276,-0.473947 0.20052,-0.710921 h 0.2552 c 0.0638,0.236974 0.1276,0.473947 0.20052,0.710921 l 1.41272,4.730356 c 0.0365,0.14583 0.16406,0.246088 0.32812,0.246088 h 0.97524 c 0.16406,0 0.29166,-0.100258 0.32811,-0.236974 z" />
        <path
           inkscape:connector-curvature="0"
           id="path2180"
           style="font-style:normal;font-variant:normal;font-weight:normal;font-stretch:expanded;font-size:9.11436653px;font-family:'Exo 2';-inkscape-font-specification:'Exo 2, weight=255 Expanded';font-variant-ligatures:normal;font-variant-caps:normal;font-variant-numeric:normal;font-feature-settings:normal;text-align:start;writing-mode:lr-tb;text-anchor:start;fill:#13406b;fill-opacity:1;stroke:#13406b;stroke-width:0.22785968;stroke-opacity:1"
           d="m 145.41557,24.550768 c -2.31505,0 -3.14445,0.802065 -3.14445,3.262944 0,2.460879 0.8294,3.262943 3.14445,3.262943 2.33328,0 3.15357,-0.802064 3.15357,-3.262943 0,-2.460879 -0.82029,-3.262944 -3.15357,-3.262944 z m 0,0.720035 c 1.73173,0 2.30594,0.619777 2.30594,2.542909 0,1.923131 -0.57421,2.542908 -2.30594,2.542908 -1.72261,0 -2.29682,-0.619777 -2.29682,-2.542908 0,-1.923132 0.57421,-2.542909 2.29682,-2.542909 z" />
        <path
           inkscape:connector-curvature="0"
           id="path2182"
           style="font-style:normal;font-variant:normal;font-weight:normal;font-stretch:expanded;font-size:9.11436653px;font-family:'Exo 2';-inkscape-font-specification:'Exo 2, weight=255 Expanded';font-variant-ligatures:normal;font-variant-caps:normal;font-variant-numeric:normal;font-feature-settings:normal;text-align:start;writing-mode:lr-tb;text-anchor:start;fill:#13406b;fill-opacity:1;stroke:#13406b;stroke-width:0.22785968;stroke-opacity:1"
           d="m 151.97948,24.669255 h -0.81118 v 4.994673 c 0,0.455718 -0.33723,0.692692 -1.00258,0.692692 h -0.61977 l -0.0911,0.565091 c 0.24609,0.07291 0.71092,0.118486 0.98436,0.118486 1.01169,0 1.54032,-0.483061 1.54032,-1.403612 z" />
        <path
           inkscape:connector-curvature="0"
           id="path2184"
           style="font-style:normal;font-variant:normal;font-weight:normal;font-stretch:expanded;font-size:9.11436653px;font-family:'Exo 2';-inkscape-font-specification:'Exo 2, weight=255 Expanded';font-variant-ligatures:normal;font-variant-caps:normal;font-variant-numeric:normal;font-feature-settings:normal;text-align:start;writing-mode:lr-tb;text-anchor:start;fill:#13406b;fill-opacity:1;stroke:#13406b;stroke-width:0.22785968;stroke-opacity:1"
           d="m 158.72383,30.292819 h -3.2994 c -0.51041,0 -0.78384,-0.182287 -0.78384,-0.610662 v -1.722616 h 3.61841 v -0.64712 h -3.61841 v -1.367155 c 0,-0.41926 0.27343,-0.601548 0.78384,-0.601548 h 3.2994 l 0.0365,-0.628891 c -1.10284,-0.05469 -2.31505,-0.05469 -3.47258,-0.05469 -0.87498,0 -1.44918,0.419261 -1.4583,1.093724 v 4.119693 c 0.009,0.674464 0.58332,1.093724 1.4583,1.093724 1.15753,0 2.36974,0 3.47258,-0.05469 z" />
        <path
           inkscape:connector-curvature="0"
           id="path2186"
           style="font-style:normal;font-variant:normal;font-weight:normal;font-stretch:expanded;font-size:9.11436653px;font-family:'Exo 2';-inkscape-font-specification:'Exo 2, weight=255 Expanded';font-variant-ligatures:normal;font-variant-caps:normal;font-variant-numeric:normal;font-feature-settings:normal;text-align:start;writing-mode:lr-tb;text-anchor:start;fill:#13406b;fill-opacity:1;stroke:#13406b;stroke-width:0.22785968;stroke-opacity:1"
           d="m 131.4048,36.116803 c -0.18229,0 -0.30078,0.09114 -0.35546,0.273431 l -1.74085,3.81892 c -0.13671,0.300774 -0.22786,0.574205 -0.33723,0.865865 h -0.24609 c -0.11848,-0.29166 -0.20963,-0.565091 -0.33723,-0.847637 l -1.74084,-3.837148 c -0.0638,-0.182287 -0.17317,-0.273431 -0.35546,-0.273431 h -0.96612 c -0.21875,0 -0.34635,0.118487 -0.35546,0.337232 l -0.32812,5.951681 h 0.81118 l 0.30077,-5.623564 h 0.24609 l 2.08719,4.639212 c 0.0638,0.173173 0.17317,0.273431 0.36457,0.273431 h 0.80207 c 0.18228,0 0.27343,-0.100258 0.35546,-0.273431 l 2.07807,-4.639212 h 0.24609 l 0.319,5.623564 h 0.80207 l -0.33723,-5.951681 c -0.009,-0.218745 -0.1276,-0.337232 -0.35546,-0.337232 z" />
        <path
           inkscape:connector-curvature="0"
           id="path2188"
           style="font-style:normal;font-variant:normal;font-weight:normal;font-stretch:expanded;font-size:9.11436653px;font-family:'Exo 2';-inkscape-font-specification:'Exo 2, weight=255 Expanded';font-variant-ligatures:normal;font-variant-caps:normal;font-variant-numeric:normal;font-feature-settings:normal;text-align:start;writing-mode:lr-tb;text-anchor:start;fill:#13406b;fill-opacity:1;stroke:#13406b;stroke-width:0.22785968;stroke-opacity:1"
           d="m 135.64768,42.405716 v -6.288913 h -0.80207 v 6.288913 z" />
        <path
           inkscape:connector-curvature="0"
           id="path2190"
           style="font-style:normal;font-variant:normal;font-weight:normal;font-stretch:expanded;font-size:9.11436653px;font-family:'Exo 2';-inkscape-font-specification:'Exo 2, weight=255 Expanded';font-variant-ligatures:normal;font-variant-caps:normal;font-variant-numeric:normal;font-feature-settings:normal;text-align:start;writing-mode:lr-tb;text-anchor:start;fill:#13406b;fill-opacity:1;stroke:#13406b;stroke-width:0.22785968;stroke-opacity:1"
           d="m 142.00708,40.437013 0.86587,1.968703 h 0.83852 l -2.70697,-6.070168 c -0.0456,-0.136716 -0.17317,-0.218745 -0.319,-0.218745 h -0.91144 c -0.14583,0 -0.26431,0.08203 -0.30988,0.218745 l -2.70697,6.070168 h 0.82941 l 0.86586,-1.968703 z m -0.30077,-0.692692 h -2.95305 l 1.10283,-2.497336 c 0.0638,-0.164059 0.13672,-0.346346 0.20963,-0.510405 h 0.32812 l 0.21875,0.510405 z" />
        <path
           inkscape:connector-curvature="0"
           id="path2192"
           style="font-style:normal;font-variant:normal;font-weight:normal;font-stretch:expanded;font-size:9.11436653px;font-family:'Exo 2';-inkscape-font-specification:'Exo 2, weight=255 Expanded';font-variant-ligatures:normal;font-variant-caps:normal;font-variant-numeric:normal;font-feature-settings:normal;text-align:start;writing-mode:lr-tb;text-anchor:start;fill:#13406b;fill-opacity:1;stroke:#13406b;stroke-width:0.22785968;stroke-opacity:1"
           d="m 147.02056,36.007431 c -1.75908,0 -2.57937,0.191401 -2.57937,1.658814 0,0.957009 0.42838,1.5221 1.60413,1.749959 l 1.7135,0.328117 c 0.79295,0.136716 1.12107,0.309888 1.12107,1.039038 0,0.865865 -0.45572,1.011694 -1.80465,1.011694 -0.73826,0.0091 -1.22132,-0.0091 -2.45176,-0.04557 l -0.0547,0.592433 c 1.0755,0.154945 1.91402,0.173173 2.47911,0.173173 1.81376,0 2.65228,-0.264316 2.65228,-1.7135 0,-0.975238 -0.41015,-1.531214 -1.64059,-1.768188 l -1.69527,-0.319002 c -0.78383,-0.136716 -1.11195,-0.337232 -1.11195,-1.029924 0,-0.929665 0.51952,-0.957008 1.80464,-0.957008 0.73827,0 1.56767,0.01823 2.25125,0.04557 l 0.0638,-0.58332 c -0.78383,-0.136715 -1.59501,-0.173173 -2.3515,-0.182287 z" />
        <path
           inkscape:connector-curvature="0"
           id="path2194"
           style="font-style:normal;font-variant:normal;font-weight:normal;font-stretch:expanded;font-size:9.11436653px;font-family:'Exo 2';-inkscape-font-specification:'Exo 2, weight=255 Expanded';font-variant-ligatures:normal;font-variant-caps:normal;font-variant-numeric:normal;font-feature-settings:normal;text-align:start;writing-mode:lr-tb;text-anchor:start;fill:#13406b;fill-opacity:1;stroke:#13406b;stroke-width:0.22785968;stroke-opacity:1"
           d="m 156.74544,36.827724 v -0.710921 h -6.19777 v 0.710921 h 2.68874 v 5.577992 h 0.81118 v -5.577992 z" />
        <path
           inkscape:connector-curvature="0"
           id="path2196"
           style="font-style:normal;font-variant:normal;font-weight:normal;font-stretch:expanded;font-size:9.11436653px;font-family:'Exo 2';-inkscape-font-specification:'Exo 2, weight=255 Expanded';font-variant-ligatures:normal;font-variant-caps:normal;font-variant-numeric:normal;font-feature-settings:normal;text-align:start;writing-mode:lr-tb;text-anchor:start;fill:#13406b;fill-opacity:1;stroke:#13406b;stroke-width:0.22785968;stroke-opacity:1"
           d="m 160.72486,35.998316 c -2.31505,0 -3.14446,0.802065 -3.14446,3.262944 0,2.460879 0.82941,3.262943 3.14446,3.262943 2.33328,0 3.15357,-0.802064 3.15357,-3.262943 0,-2.460879 -0.82029,-3.262944 -3.15357,-3.262944 z m 0,0.720035 c 1.73173,0 2.30593,0.619777 2.30593,2.542909 0,1.923131 -0.5742,2.542908 -2.30593,2.542908 -1.72262,0 -2.29682,-0.619777 -2.29682,-2.542908 0,-1.923132 0.5742,-2.542909 2.29682,-2.542909 z" />
        <path
           inkscape:connector-curvature="0"
           id="path2198"
           style="font-style:normal;font-variant:normal;font-weight:normal;font-stretch:expanded;font-size:9.11436653px;font-family:'Exo 2';-inkscape-font-specification:'Exo 2, weight=255 Expanded';font-variant-ligatures:normal;font-variant-caps:normal;font-variant-numeric:normal;font-feature-settings:normal;text-align:start;writing-mode:lr-tb;text-anchor:start;fill:#13406b;fill-opacity:1;stroke:#13406b;stroke-width:0.22785968;stroke-opacity:1"
           d="m 130.2655,50.216632 h -0.79295 v 2.424421 c -0.59243,0.319003 -1.22132,0.628892 -2.15099,0.628892 -1.44007,0 -1.95959,-0.674464 -1.95959,-2.52468 0,-2.196562 0.63801,-2.579366 2.47911,-2.579366 0.72004,0 1.40361,0.01823 2.14188,0.07291 l 0.0911,-0.601548 c -0.70181,-0.136715 -1.38538,-0.191402 -2.27859,-0.191402 -2.42442,0 -3.28117,0.747378 -3.28117,3.244715 0,2.260363 0.74737,3.281172 2.60671,3.281172 1.09372,0 1.93224,-0.43749 2.46087,-0.811179 l 0.0911,0.692692 h 0.59243 z" />
        <path
           inkscape:connector-curvature="0"
           id="path2200"
           style="font-style:normal;font-variant:normal;font-weight:normal;font-stretch:expanded;font-size:9.11436653px;font-family:'Exo 2';-inkscape-font-specification:'Exo 2, weight=255 Expanded';font-variant-ligatures:normal;font-variant-caps:normal;font-variant-numeric:normal;font-feature-settings:normal;text-align:start;writing-mode:lr-tb;text-anchor:start;fill:#13406b;fill-opacity:1;stroke:#13406b;stroke-width:0.22785968;stroke-opacity:1"
           d="m 134.96609,47.445864 c -2.31504,0 -3.14445,0.802065 -3.14445,3.262944 0,2.460879 0.82941,3.262943 3.14445,3.262943 2.33328,0 3.15357,-0.802064 3.15357,-3.262943 0,-2.460879 -0.82029,-3.262944 -3.15357,-3.262944 z m 0,0.720035 c 1.73173,0 2.30594,0.619777 2.30594,2.542909 0,1.923131 -0.57421,2.542908 -2.30594,2.542908 -1.72261,0 -2.29682,-0.619777 -2.29682,-2.542908 0,-1.923132 0.57421,-2.542909 2.29682,-2.542909 z" />
        <path
           inkscape:connector-curvature="0"
           id="path2202"
           style="font-style:normal;font-variant:normal;font-weight:normal;font-stretch:expanded;font-size:9.11436653px;font-family:'Exo 2';-inkscape-font-specification:'Exo 2, weight=255 Expanded';font-variant-ligatures:normal;font-variant-caps:normal;font-variant-numeric:normal;font-feature-settings:normal;text-align:start;writing-mode:lr-tb;text-anchor:start;fill:#13406b;fill-opacity:1;stroke:#13406b;stroke-width:0.22785968;stroke-opacity:1"
           d="m 145.37242,53.853264 -0.82029,-1.986932 c -0.18229,-0.528633 -0.56509,-0.820293 -0.96612,-0.902322 v -0.04557 c 1.05726,-0.109372 1.48564,-0.601548 1.48564,-1.622357 0,-1.412727 -0.70181,-1.813759 -2.5338,-1.813759 -1.28512,0 -1.87756,0.0091 -2.74342,0.08203 v 6.288913 h 0.80206 v -2.643166 c 0.47395,0.0091 1.13019,0.01823 1.98694,0.01823 0.56509,0 0.92055,0.182287 1.15752,0.656234 l 0.76561,1.968703 z m -4.77593,-3.317629 v -2.351507 c 0.47395,0 1.14841,-0.0091 1.93225,-0.0091 1.28513,0 1.73173,0.246088 1.73173,1.166639 0,0.929665 -0.4466,1.184867 -1.73173,1.193982 z" />
        <path
           inkscape:connector-curvature="0"
           id="path2204"
           style="font-style:normal;font-variant:normal;font-weight:normal;font-stretch:expanded;font-size:9.11436653px;font-family:'Exo 2';-inkscape-font-specification:'Exo 2, weight=255 Expanded';font-variant-ligatures:normal;font-variant-caps:normal;font-variant-numeric:normal;font-feature-settings:normal;text-align:start;writing-mode:lr-tb;text-anchor:start;fill:#13406b;fill-opacity:1;stroke:#13406b;stroke-width:0.22785968;stroke-opacity:1"
           d="m 151.89275,53.169687 h -4.51161 l 4.4387,-4.921758 v -0.683578 h -5.35013 v 0.683578 h 4.38401 l -4.44781,4.921758 v 0.683577 h 5.48684 z" />
        <path
           inkscape:connector-curvature="0"
           id="path2206"
           style="font-style:normal;font-variant:normal;font-weight:normal;font-stretch:expanded;font-size:9.11436653px;font-family:'Exo 2';-inkscape-font-specification:'Exo 2, weight=255 Expanded';font-variant-ligatures:normal;font-variant-caps:normal;font-variant-numeric:normal;font-feature-settings:normal;text-align:start;writing-mode:lr-tb;text-anchor:start;fill:#13406b;fill-opacity:1;stroke:#13406b;stroke-width:0.22785968;stroke-opacity:1"
           d="m 157.90767,46.124281 -0.46484,-0.592434 -1.94136,1.330698 0.29166,0.35546 z m -1.70439,1.321583 c -2.31505,0 -3.14446,0.802065 -3.14446,3.262944 0,2.460879 0.82941,3.262943 3.14446,3.262943 2.33328,0 3.15357,-0.802064 3.15357,-3.262943 0,-2.460879 -0.82029,-3.262944 -3.15357,-3.262944 z m 0,0.720035 c 1.73173,0 2.30593,0.619777 2.30593,2.542909 0,1.923131 -0.5742,2.542908 -2.30593,2.542908 -1.72262,0 -2.29682,-0.619777 -2.29682,-2.542908 0,-1.923132 0.5742,-2.542909 2.29682,-2.542909 z" />
        <path
           inkscape:connector-curvature="0"
           id="path2208"
           style="font-style:normal;font-variant:normal;font-weight:normal;font-stretch:expanded;font-size:9.11436653px;font-family:'Exo 2';-inkscape-font-specification:'Exo 2, weight=255 Expanded';font-variant-ligatures:normal;font-variant-caps:normal;font-variant-numeric:normal;font-feature-settings:normal;text-align:start;writing-mode:lr-tb;text-anchor:start;fill:#13406b;fill-opacity:1;stroke:#13406b;stroke-width:0.22785968;stroke-opacity:1"
           d="m 170.75664,47.564351 h -0.84763 l -1.47653,4.912644 c -0.0638,0.246088 -0.11849,0.510404 -0.18229,0.765607 h -0.29166 c -0.0547,-0.255203 -0.10937,-0.510405 -0.18228,-0.774722 l -1.41273,-4.639212 c -0.0456,-0.154944 -0.16406,-0.264317 -0.33723,-0.264317 h -0.91144 c -0.17317,0 -0.30077,0.109373 -0.32812,0.264317 l -1.42184,4.639212 c -0.0729,0.246088 -0.1276,0.492176 -0.18228,0.774722 h -0.30078 c -0.0638,-0.282546 -0.10937,-0.537748 -0.17317,-0.774722 l -1.4583,-4.903529 h -0.85675 l 1.80464,6.05194 c 0.0365,0.136715 0.16406,0.236973 0.32812,0.236973 h 0.97524 c 0.15494,0 0.30077,-0.100258 0.33723,-0.246088 l 1.40361,-4.730356 c 0.0729,-0.227859 0.1276,-0.473947 0.20052,-0.710921 h 0.2552 c 0.0638,0.236974 0.1276,0.473947 0.20052,0.710921 l 1.41272,4.730356 c 0.0365,0.14583 0.16406,0.246088 0.32812,0.246088 h 0.97524 c 0.16406,0 0.29166,-0.100258 0.32811,-0.236973 z" />
      </g>
      <path
         inkscape:connector-curvature="0"
         id="path827-49"
         d="m 117.41561,24.489395 v 29.54373"
         style="fill:none;stroke:#13406b;stroke-width:0.58215153;stroke-linecap:butt;stroke-linejoin:miter;stroke-miterlimit:4;stroke-dasharray:none;stroke-opacity:1" />
    </g>
    <g
       id="g2318"
       style="fill:#cb121d;fill-opacity:1;stroke:#cb121d;stroke-width:0.40000001;stroke-miterlimit:4;stroke-dasharray:none;stroke-opacity:1">
      <g
         id="text2148"
         style="font-style:normal;font-variant:normal;font-weight:200;font-stretch:normal;font-size:10.21976471px;line-height:1.25;font-family:Supra;-inkscape-font-specification:'Supra, Ultra-Light';font-variant-ligatures:normal;font-variant-caps:normal;font-variant-numeric:normal;font-feature-settings:normal;text-align:start;letter-spacing:0px;word-spacing:0px;writing-mode:lr-tb;text-anchor:start;fill:#cb121d;fill-opacity:1;stroke:#cb121d;stroke-width:0.40000001;stroke-miterlimit:4;stroke-dasharray:none;stroke-opacity:1"
         aria-label="portal społeczności miejskiej">
        <path
           inkscape:connector-curvature="0"
           id="path2211"
           style="font-style:normal;font-variant:normal;font-weight:200;font-stretch:normal;font-size:10.21976471px;font-family:Supra;-inkscape-font-specification:'Supra, Ultra-Light';font-variant-ligatures:normal;font-variant-caps:normal;font-variant-numeric:normal;font-feature-settings:normal;text-align:start;writing-mode:lr-tb;text-anchor:start;fill:#cb121d;fill-opacity:1;stroke:#cb121d;stroke-width:0.40000001;stroke-miterlimit:4;stroke-dasharray:none;stroke-opacity:1"
           d="m 18.79292,68.346388 h 0.480329 v -2.851314 c 0.296373,0.122637 0.889119,0.357691 1.982634,0.357691 2.15637,0 3.04549,-1.420547 3.04549,-2.667358 0,-1.451207 -0.86868,-2.554941 -2.687798,-2.554941 -1.062856,0 -1.921316,0.449669 -2.360766,1.042416 V 60.742883 H 18.79292 Z m 0.480329,-3.413401 V 63.03211 c 0,-0.531427 0.06132,-0.735823 0.245274,-1.021976 0.214615,-0.337252 0.960658,-0.8789 2.084832,-0.8789 1.379668,0 2.217689,0.705164 2.217689,2.043953 0,1.389888 -1.124174,2.17681 -2.62648,2.17681 -1.144613,0 -1.512525,-0.194176 -1.921315,-0.41901 z" />
        <path
           inkscape:connector-curvature="0"
           id="path2213"
           style="font-style:normal;font-variant:normal;font-weight:200;font-stretch:normal;font-size:10.21976471px;font-family:Supra;-inkscape-font-specification:'Supra, Ultra-Light';font-variant-ligatures:normal;font-variant-caps:normal;font-variant-numeric:normal;font-feature-settings:normal;text-align:start;writing-mode:lr-tb;text-anchor:start;fill:#cb121d;fill-opacity:1;stroke:#cb121d;stroke-width:0.40000001;stroke-miterlimit:4;stroke-dasharray:none;stroke-opacity:1"
           d="m 28.332591,65.893645 c 1.532965,0 3.096589,-0.858461 3.096589,-2.6367 0,-1.757799 -1.512526,-2.657139 -3.07615,-2.657139 -1.512525,0 -3.086368,0.929999 -3.086368,2.657139 0,1.778239 1.563624,2.6367 3.065929,2.6367 z m 0,-0.500769 c -1.389888,0 -2.575381,-0.786922 -2.575381,-2.115491 0,-1.257031 1.113955,-2.17681 2.59582,-2.17681 1.512526,0 2.575381,0.86868 2.575381,2.17681 0,1.328569 -1.195712,2.115491 -2.59582,2.115491 z" />
        <path
           inkscape:connector-curvature="0"
           id="path2215"
           style="font-style:normal;font-variant:normal;font-weight:200;font-stretch:normal;font-size:10.21976471px;font-family:Supra;-inkscape-font-specification:'Supra, Ultra-Light';font-variant-ligatures:normal;font-variant-caps:normal;font-variant-numeric:normal;font-feature-settings:normal;text-align:start;writing-mode:lr-tb;text-anchor:start;fill:#cb121d;fill-opacity:1;stroke:#cb121d;stroke-width:0.40000001;stroke-miterlimit:4;stroke-dasharray:none;stroke-opacity:1"
           d="m 32.893321,65.781227 h 0.480329 v -1.900876 c 0,-0.398571 0.01022,-0.8789 0.102198,-1.277471 0.112417,-0.449669 0.572307,-1.440987 1.778239,-1.440987 0.541647,0 0.84824,0.122638 1.083295,0.245275 l 0.194175,-0.480329 c -0.327032,-0.153297 -0.623405,-0.265714 -1.257031,-0.265714 -0.827801,0 -1.676041,0.582527 -1.921315,1.205932 v -1.124174 h -0.45989 z" />
        <path
           inkscape:connector-curvature="0"
           id="path2217"
           style="font-style:normal;font-variant:normal;font-weight:200;font-stretch:normal;font-size:10.21976471px;font-family:Supra;-inkscape-font-specification:'Supra, Ultra-Light';font-variant-ligatures:normal;font-variant-caps:normal;font-variant-numeric:normal;font-feature-settings:normal;text-align:start;writing-mode:lr-tb;text-anchor:start;fill:#cb121d;fill-opacity:1;stroke:#cb121d;stroke-width:0.40000001;stroke-miterlimit:4;stroke-dasharray:none;stroke-opacity:1"
           d="m 39.261512,65.903864 c 0.398571,0 1.062856,-0.153296 1.31835,-0.235054 v -0.510989 c -0.357692,0.132857 -0.929999,0.265714 -1.29791,0.265714 -0.500769,0 -0.756263,-0.214615 -0.86868,-0.562087 -0.07154,-0.255494 -0.09198,-0.654065 -0.09198,-1.236591 v -2.381205 h 1.941755 v -0.480329 h -1.941755 v -1.492086 l -0.44967,0.173736 -0.02044,1.31835 H 36.63503 v 0.480329 h 1.216152 v 2.401644 c 0,0.613186 0,0.929999 0.07154,1.267251 0.122637,0.572307 0.562087,0.991317 1.33879,0.991317 z" />
        <path
           inkscape:connector-curvature="0"
           id="path2219"
           style="font-style:normal;font-variant:normal;font-weight:200;font-stretch:normal;font-size:10.21976471px;font-family:Supra;-inkscape-font-specification:'Supra, Ultra-Light';font-variant-ligatures:normal;font-variant-caps:normal;font-variant-numeric:normal;font-feature-settings:normal;text-align:start;writing-mode:lr-tb;text-anchor:start;fill:#cb121d;fill-opacity:1;stroke:#cb121d;stroke-width:0.40000001;stroke-miterlimit:4;stroke-dasharray:none;stroke-opacity:1"
           d="m 43.169454,65.862985 c 0.981098,0 1.900876,-0.510988 2.146151,-0.817581 -0.01022,0.725603 0.480329,0.838021 0.684724,0.838021 0.183956,0 0.378131,-0.06132 0.521208,-0.122637 v -0.43945 c -0.153296,0.06132 -0.296373,0.09198 -0.41901,0.09198 -0.153297,0 -0.245275,-0.0511 -0.275934,-0.122638 -0.03066,-0.07154 -0.02044,-0.204395 -0.02044,-0.316812 v -2.319887 c 0,-0.316813 0,-0.746043 -0.07154,-1.021976 -0.224835,-0.776702 -0.817581,-0.991318 -1.982634,-0.991318 -0.42923,0 -1.430767,0.183956 -2.16659,0.510989 v 0.531427 c 0.807361,-0.388351 1.757799,-0.551867 2.17681,-0.551867 0.817581,0 1.185492,0.09198 1.410327,0.480329 0.143077,0.235055 0.143077,0.592746 0.143077,0.85846 v 0.255494 c -0.960658,0 -2.258568,0.01022 -3.127248,0.327033 -0.562087,0.194175 -1.144614,0.551867 -1.144614,1.410327 0,1.011757 1.113954,1.400108 2.125711,1.400108 z m 0.02044,-0.500768 c -0.838021,0 -1.635163,-0.255494 -1.635163,-0.929999 0,-0.378131 0.286154,-0.735823 0.756263,-0.909559 0.705164,-0.265714 2.084832,-0.286153 3.004611,-0.286153 v 0.684724 c 0,0.275934 -0.08176,0.562087 -0.173736,0.684724 -0.265714,0.327033 -1.236592,0.756263 -1.951975,0.756263 z" />
        <path
           inkscape:connector-curvature="0"
           id="path2221"
           style="font-style:normal;font-variant:normal;font-weight:200;font-stretch:normal;font-size:10.21976471px;font-family:Supra;-inkscape-font-specification:'Supra, Ultra-Light';font-variant-ligatures:normal;font-variant-caps:normal;font-variant-numeric:normal;font-feature-settings:normal;text-align:start;writing-mode:lr-tb;text-anchor:start;fill:#cb121d;fill-opacity:1;stroke:#cb121d;stroke-width:0.40000001;stroke-miterlimit:4;stroke-dasharray:none;stroke-opacity:1"
           d="m 49.377642,65.750568 v -0.470109 c -0.163517,0.07154 -0.572307,0.143076 -0.684725,0.143076 -0.173736,0 -0.245274,-0.06132 -0.296373,-0.132857 -0.03066,-0.06132 -0.04088,-0.235054 -0.04088,-0.327032 v -6.714385 h -0.480329 v 6.724605 c 0,0.296373 0.02044,0.500768 0.09198,0.613186 0.143077,0.235054 0.306593,0.296373 0.541648,0.296373 0.183955,0 0.705163,-0.0511 0.868679,-0.132857 z" />
        <path
           inkscape:connector-curvature="0"
           id="path2223"
           style="font-style:normal;font-variant:normal;font-weight:200;font-stretch:normal;font-size:10.21976471px;font-family:Supra;-inkscape-font-specification:'Supra, Ultra-Light';font-variant-ligatures:normal;font-variant-caps:normal;font-variant-numeric:normal;font-feature-settings:normal;text-align:start;writing-mode:lr-tb;text-anchor:start;fill:#cb121d;fill-opacity:1;stroke:#cb121d;stroke-width:0.40000001;stroke-miterlimit:4;stroke-dasharray:none;stroke-opacity:1"
           d="m 55.064461,65.883425 c 0.88912,0 2.360766,-0.265714 2.360766,-1.481866 0,-0.643845 -0.347472,-1.001537 -1.216152,-1.277471 L 55.10534,62.776616 c -0.643845,-0.204395 -1.236591,-0.388351 -1.236591,-0.766482 0,-0.572307 0.807361,-0.8789 1.563624,-0.8789 0.664284,0 1.318349,0.143077 1.747579,0.337252 v -0.531427 c -0.41901,-0.183956 -1.195712,-0.296374 -1.73736,-0.296374 -1.042416,0 -2.064392,0.44967 -2.064392,1.359229 0,0.756263 0.623406,0.960658 1.31835,1.175273 l 1.236591,0.378131 c 0.766482,0.235055 1.011757,0.490549 1.011757,0.858461 0,0.664284 -0.991317,0.981097 -1.859997,0.981097 -0.674505,0 -1.400108,-0.224835 -1.900877,-0.500768 v 0.551867 c 0.510989,0.275934 1.30813,0.43945 1.880437,0.43945 z" />
        <path
           inkscape:connector-curvature="0"
           id="path2225"
           style="font-style:normal;font-variant:normal;font-weight:200;font-stretch:normal;font-size:10.21976471px;font-family:Supra;-inkscape-font-specification:'Supra, Ultra-Light';font-variant-ligatures:normal;font-variant-caps:normal;font-variant-numeric:normal;font-feature-settings:normal;text-align:start;writing-mode:lr-tb;text-anchor:start;fill:#cb121d;fill-opacity:1;stroke:#cb121d;stroke-width:0.40000001;stroke-miterlimit:4;stroke-dasharray:none;stroke-opacity:1"
           d="m 59.093125,68.346388 h 0.480329 v -2.851314 c 0.296373,0.122637 0.889119,0.357691 1.982634,0.357691 2.156371,0 3.04549,-1.420547 3.04549,-2.667358 0,-1.451207 -0.86868,-2.554941 -2.687798,-2.554941 -1.062856,0 -1.921316,0.449669 -2.360766,1.042416 v -0.929999 h -0.459889 z m 0.480329,-3.413401 V 63.03211 c 0,-0.531427 0.06132,-0.735823 0.245274,-1.021976 0.214615,-0.337252 0.960658,-0.8789 2.084832,-0.8789 1.379668,0 2.217689,0.705164 2.217689,2.043953 0,1.389888 -1.124174,2.17681 -2.626479,2.17681 -1.144614,0 -1.512526,-0.194176 -1.921316,-0.41901 z" />
        <path
           inkscape:connector-curvature="0"
           id="path2227"
           style="font-style:normal;font-variant:normal;font-weight:200;font-stretch:normal;font-size:10.21976471px;font-family:Supra;-inkscape-font-specification:'Supra, Ultra-Light';font-variant-ligatures:normal;font-variant-caps:normal;font-variant-numeric:normal;font-feature-settings:normal;text-align:start;writing-mode:lr-tb;text-anchor:start;fill:#cb121d;fill-opacity:1;stroke:#cb121d;stroke-width:0.40000001;stroke-miterlimit:4;stroke-dasharray:none;stroke-opacity:1"
           d="m 68.632795,65.893645 c 1.532964,0 3.096588,-0.858461 3.096588,-2.6367 0,-1.757799 -1.512525,-2.657139 -3.076149,-2.657139 -1.512525,0 -3.086369,0.929999 -3.086369,2.657139 0,1.778239 1.563624,2.6367 3.06593,2.6367 z m 0,-0.500769 c -1.389888,0 -2.575381,-0.786922 -2.575381,-2.115491 0,-1.257031 1.113954,-2.17681 2.59582,-2.17681 1.512525,0 2.575381,0.86868 2.575381,2.17681 0,1.328569 -1.195712,2.115491 -2.59582,2.115491 z" />
        <path
           inkscape:connector-curvature="0"
           id="path2229"
           style="font-style:normal;font-variant:normal;font-weight:200;font-stretch:normal;font-size:10.21976471px;font-family:Supra;-inkscape-font-specification:'Supra, Ultra-Light';font-variant-ligatures:normal;font-variant-caps:normal;font-variant-numeric:normal;font-feature-settings:normal;text-align:start;writing-mode:lr-tb;text-anchor:start;fill:#cb121d;fill-opacity:1;stroke:#cb121d;stroke-width:0.40000001;stroke-miterlimit:4;stroke-dasharray:none;stroke-opacity:1"
           d="m 74.092866,65.893645 c 0.173736,0 0.367911,-0.0511 0.541647,-0.132857 v -0.480329 c -0.163516,0.07154 -0.306593,0.112417 -0.42923,0.112417 -0.286153,0 -0.286153,-0.04088 -0.367911,-0.09198 -0.112418,-0.06132 -0.112418,-0.398571 -0.112418,-0.623405 v -1.808899 l 1.093515,-1.073075 -0.316813,-0.286154 -0.776702,0.797142 v -4.057246 h -0.490548 v 4.506916 l -1.113955,1.113954 0.286154,0.286154 0.827801,-0.807362 v 1.686261 c 0,0.746043 0.623405,0.858461 0.85846,0.858461 z" />
        <path
           inkscape:connector-curvature="0"
           id="path2231"
           style="font-style:normal;font-variant:normal;font-weight:200;font-stretch:normal;font-size:10.21976471px;font-family:Supra;-inkscape-font-specification:'Supra, Ultra-Light';font-variant-ligatures:normal;font-variant-caps:normal;font-variant-numeric:normal;font-feature-settings:normal;text-align:start;writing-mode:lr-tb;text-anchor:start;fill:#cb121d;fill-opacity:1;stroke:#cb121d;stroke-width:0.40000001;stroke-miterlimit:4;stroke-dasharray:none;stroke-opacity:1"
           d="m 78.292229,65.893645 c 1.134394,0 2.340326,-0.45989 2.524282,-0.694944 v -0.592747 c -0.378132,0.347472 -1.226372,0.797142 -2.422084,0.797142 -1.236592,0 -2.585601,-0.480329 -2.585601,-2.135931 h 5.252959 c 0.01022,-0.08176 0.01022,-0.286153 0.01022,-0.367912 0,-1.594283 -1.645382,-2.258568 -2.769556,-2.258568 -1.205933,0 -3.004611,0.705164 -3.004611,2.585601 0,1.880437 1.461426,2.667359 2.994391,2.667359 z m -2.462963,-3.117029 c 0.327032,-1.216152 1.349009,-1.635162 2.483402,-1.635162 1.011757,0 2.156371,0.531428 2.289228,1.635162 z" />
        <path
           inkscape:connector-curvature="0"
           id="path2233"
           style="font-style:normal;font-variant:normal;font-weight:200;font-stretch:normal;font-size:10.21976471px;font-family:Supra;-inkscape-font-specification:'Supra, Ultra-Light';font-variant-ligatures:normal;font-variant-caps:normal;font-variant-numeric:normal;font-feature-settings:normal;text-align:start;writing-mode:lr-tb;text-anchor:start;fill:#cb121d;fill-opacity:1;stroke:#cb121d;stroke-width:0.40000001;stroke-miterlimit:4;stroke-dasharray:none;stroke-opacity:1"
           d="m 84.915754,65.893645 c 0.674504,0 1.655602,-0.194176 2.074612,-0.500769 v -0.531428 c -0.480329,0.316813 -1.328569,0.531428 -1.921316,0.531428 -1.584063,0 -2.544721,-0.613186 -2.544721,-2.146151 0,-1.083295 0.735823,-2.14615 2.565161,-2.14615 0.623405,0 1.359228,0.153296 1.757799,0.337252 V 60.88596 c -0.388351,-0.173736 -1.195712,-0.286154 -1.757799,-0.286154 -1.461427,0 -3.05571,0.746043 -3.05571,2.667359 0,1.911096 1.481866,2.62648 2.881974,2.62648 z" />
        <path
           inkscape:connector-curvature="0"
           id="path2235"
           style="font-style:normal;font-variant:normal;font-weight:200;font-stretch:normal;font-size:10.21976471px;font-family:Supra;-inkscape-font-specification:'Supra, Ultra-Light';font-variant-ligatures:normal;font-variant-caps:normal;font-variant-numeric:normal;font-feature-settings:normal;text-align:start;writing-mode:lr-tb;text-anchor:start;fill:#cb121d;fill-opacity:1;stroke:#cb121d;stroke-width:0.40000001;stroke-miterlimit:4;stroke-dasharray:none;stroke-opacity:1"
           d="m 87.891461,65.781227 h 5.017904 v -0.510988 c -2.391425,0 -3.699555,0.03066 -4.159444,0.02044 l 4.108345,-4.179883 v -0.347472 h -4.76241 v 0.510988 c 1.921316,0 3.06593,-0.01022 3.90395,-0.02044 l -4.108345,4.241203 z" />
        <path
           inkscape:connector-curvature="0"
           id="path2237"
           style="font-style:normal;font-variant:normal;font-weight:200;font-stretch:normal;font-size:10.21976471px;font-family:Supra;-inkscape-font-specification:'Supra, Ultra-Light';font-variant-ligatures:normal;font-variant-caps:normal;font-variant-numeric:normal;font-feature-settings:normal;text-align:start;writing-mode:lr-tb;text-anchor:start;fill:#cb121d;fill-opacity:1;stroke:#cb121d;stroke-width:0.40000001;stroke-miterlimit:4;stroke-dasharray:none;stroke-opacity:1"
           d="m 94.50301,65.781227 h 0.480329 v -2.892193 c 0,-0.408791 0.122637,-0.735823 0.275934,-0.909559 0.510988,-0.562087 1.205932,-0.858461 2.013294,-0.858461 0.715383,0 1.349009,0.163517 1.645382,0.602967 0.143076,0.224834 0.224835,0.490548 0.224835,1.113954 v 2.943292 h 0.480328 v -2.994391 c 0,-0.510988 -0.03066,-0.889119 -0.245274,-1.246811 -0.367911,-0.623406 -1.195712,-0.88912 -2.095052,-0.88912 -1.328569,0 -2.187029,0.684724 -2.319886,1.165053 v -1.062855 h -0.45989 z" />
        <path
           inkscape:connector-curvature="0"
           id="path2239"
           style="font-style:normal;font-variant:normal;font-weight:200;font-stretch:normal;font-size:10.21976471px;font-family:Supra;-inkscape-font-specification:'Supra, Ultra-Light';font-variant-ligatures:normal;font-variant-caps:normal;font-variant-numeric:normal;font-feature-settings:normal;text-align:start;writing-mode:lr-tb;text-anchor:start;fill:#cb121d;fill-opacity:1;stroke:#cb121d;stroke-width:0.40000001;stroke-miterlimit:4;stroke-dasharray:none;stroke-opacity:1"
           d="m 104.10257,65.893645 c 1.53296,0 3.09659,-0.858461 3.09659,-2.6367 0,-1.757799 -1.51253,-2.657139 -3.07615,-2.657139 -1.51253,0 -3.08637,0.929999 -3.08637,2.657139 0,1.778239 1.56362,2.6367 3.06593,2.6367 z m 0,-0.500769 c -1.38989,0 -2.57538,-0.786922 -2.57538,-2.115491 0,-1.257031 1.11395,-2.17681 2.59582,-2.17681 1.51252,0 2.57538,0.86868 2.57538,2.17681 0,1.328569 -1.19572,2.115491 -2.59582,2.115491 z" />
        <path
           inkscape:connector-curvature="0"
           id="path2241"
           style="font-style:normal;font-variant:normal;font-weight:200;font-stretch:normal;font-size:10.21976471px;font-family:Supra;-inkscape-font-specification:'Supra, Ultra-Light';font-variant-ligatures:normal;font-variant-caps:normal;font-variant-numeric:normal;font-feature-settings:normal;text-align:start;writing-mode:lr-tb;text-anchor:start;fill:#cb121d;fill-opacity:1;stroke:#cb121d;stroke-width:0.40000001;stroke-miterlimit:4;stroke-dasharray:none;stroke-opacity:1"
           d="m 110.15538,65.883425 c 0.88912,0 2.36077,-0.265714 2.36077,-1.481866 0,-0.643845 -0.34747,-1.001537 -1.21615,-1.277471 l -1.10374,-0.347472 c -0.64384,-0.204395 -1.23659,-0.388351 -1.23659,-0.766482 0,-0.572307 0.80736,-0.8789 1.56363,-0.8789 0.66428,0 1.31835,0.143077 1.74758,0.337252 v -0.531427 c -0.41901,-0.183956 -1.19572,-0.296374 -1.73736,-0.296374 -1.04242,0 -2.0644,0.44967 -2.0644,1.359229 0,0.756263 0.62341,0.960658 1.31835,1.175273 l 1.23659,0.378131 c 0.76649,0.235055 1.01176,0.490549 1.01176,0.858461 0,0.664284 -0.99132,0.981097 -1.86,0.981097 -0.6745,0 -1.4001,-0.224835 -1.90087,-0.500768 v 0.551867 c 0.51099,0.275934 1.30813,0.43945 1.88043,0.43945 z m -0.34747,-5.794607 c 0.59275,-0.367911 1.50231,-1.011757 2.02352,-1.768019 l -0.55187,-0.296373 c -0.43945,0.694944 -1.06286,1.28769 -1.66582,1.73736 z" />
        <path
           inkscape:connector-curvature="0"
           id="path2243"
           style="font-style:normal;font-variant:normal;font-weight:200;font-stretch:normal;font-size:10.21976471px;font-family:Supra;-inkscape-font-specification:'Supra, Ultra-Light';font-variant-ligatures:normal;font-variant-caps:normal;font-variant-numeric:normal;font-feature-settings:normal;text-align:start;writing-mode:lr-tb;text-anchor:start;fill:#cb121d;fill-opacity:1;stroke:#cb121d;stroke-width:0.40000001;stroke-miterlimit:4;stroke-dasharray:none;stroke-opacity:1"
           d="m 116.47327,65.893645 c 0.6745,0 1.6556,-0.194176 2.07461,-0.500769 v -0.531428 c -0.48033,0.316813 -1.32857,0.531428 -1.92132,0.531428 -1.58406,0 -2.54472,-0.613186 -2.54472,-2.146151 0,-1.083295 0.73583,-2.14615 2.56516,-2.14615 0.62341,0 1.35923,0.153296 1.7578,0.337252 V 60.88596 c -0.38835,-0.173736 -1.19571,-0.286154 -1.7578,-0.286154 -1.46142,0 -3.05571,0.746043 -3.05571,2.667359 0,1.911096 1.48187,2.62648 2.88198,2.62648 z" />
        <path
           inkscape:connector-curvature="0"
           id="path2245"
           style="font-style:normal;font-variant:normal;font-weight:200;font-stretch:normal;font-size:10.21976471px;font-family:Supra;-inkscape-font-specification:'Supra, Ultra-Light';font-variant-ligatures:normal;font-variant-caps:normal;font-variant-numeric:normal;font-feature-settings:normal;text-align:start;writing-mode:lr-tb;text-anchor:start;fill:#cb121d;fill-opacity:1;stroke:#cb121d;stroke-width:0.40000001;stroke-miterlimit:4;stroke-dasharray:none;stroke-opacity:1"
           d="m 120.07238,65.781227 h 0.48033 v -5.017904 h -0.48033 z m -0.21461,-6.53043 c 0,0.214616 0.19417,0.388352 0.44967,0.388352 0.25549,0 0.45989,-0.173736 0.45989,-0.388352 0,-0.214615 -0.2044,-0.388351 -0.45989,-0.388351 -0.2555,0 -0.44967,0.173736 -0.44967,0.388351 z" />
        <path
           inkscape:connector-curvature="0"
           id="path2247"
           style="font-style:normal;font-variant:normal;font-weight:200;font-stretch:normal;font-size:10.21976471px;font-family:Supra;-inkscape-font-specification:'Supra, Ultra-Light';font-variant-ligatures:normal;font-variant-caps:normal;font-variant-numeric:normal;font-feature-settings:normal;text-align:start;writing-mode:lr-tb;text-anchor:start;fill:#cb121d;fill-opacity:1;stroke:#cb121d;stroke-width:0.40000001;stroke-miterlimit:4;stroke-dasharray:none;stroke-opacity:1"
           d="m 125.78108,65.781227 h 0.48033 v -2.933072 c 0,-0.408791 0.0715,-0.654065 0.17373,-0.827801 0.36792,-0.592747 1.10374,-0.89934 1.88044,-0.89934 0.80736,0 1.27747,0.173736 1.5534,0.602967 0.1533,0.245274 0.22484,0.786921 0.22484,1.205932 v 2.851314 h 0.48033 v -2.922853 c 0,-0.41901 0.0818,-0.674504 0.20439,-0.85846 0.3577,-0.572307 0.99132,-0.8789 1.79868,-0.8789 0.8278,0 1.31835,0.224835 1.59429,0.592747 0.21461,0.275933 0.22483,0.766482 0.22483,1.185492 v 2.881974 h 0.49055 v -3.05571 c 0,-0.378131 -0.0511,-0.940218 -0.27593,-1.236591 -0.51099,-0.674505 -1.20594,-0.838021 -2.03374,-0.838021 -0.86868,0 -1.85999,0.572307 -2.12571,1.185493 -0.26571,-0.86868 -1.17527,-1.185493 -2.09505,-1.185493 -0.88912,0 -1.79868,0.470109 -2.12571,1.124174 v -1.011756 h -0.44967 z" />
        <path
           inkscape:connector-curvature="0"
           id="path2249"
           style="font-style:normal;font-variant:normal;font-weight:200;font-stretch:normal;font-size:10.21976471px;font-family:Supra;-inkscape-font-specification:'Supra, Ultra-Light';font-variant-ligatures:normal;font-variant-caps:normal;font-variant-numeric:normal;font-feature-settings:normal;text-align:start;writing-mode:lr-tb;text-anchor:start;fill:#cb121d;fill-opacity:1;stroke:#cb121d;stroke-width:0.40000001;stroke-miterlimit:4;stroke-dasharray:none;stroke-opacity:1"
           d="m 136.81923,65.781227 h 0.48032 v -5.017904 h -0.48032 z m -0.21462,-6.53043 c 0,0.214616 0.19418,0.388352 0.44967,0.388352 0.25549,0 0.45989,-0.173736 0.45989,-0.388352 0,-0.214615 -0.2044,-0.388351 -0.45989,-0.388351 -0.25549,0 -0.44967,0.173736 -0.44967,0.388351 z" />
        <path
           inkscape:connector-curvature="0"
           id="path2251"
           style="font-style:normal;font-variant:normal;font-weight:200;font-stretch:normal;font-size:10.21976471px;font-family:Supra;-inkscape-font-specification:'Supra, Ultra-Light';font-variant-ligatures:normal;font-variant-caps:normal;font-variant-numeric:normal;font-feature-settings:normal;text-align:start;writing-mode:lr-tb;text-anchor:start;fill:#cb121d;fill-opacity:1;stroke:#cb121d;stroke-width:0.40000001;stroke-miterlimit:4;stroke-dasharray:none;stroke-opacity:1"
           d="m 141.82644,65.893645 c 1.13439,0 2.34032,-0.45989 2.52428,-0.694944 v -0.592747 c -0.37813,0.347472 -1.22637,0.797142 -2.42209,0.797142 -1.23659,0 -2.5856,-0.480329 -2.5856,-2.135931 h 5.25296 c 0.0102,-0.08176 0.0102,-0.286153 0.0102,-0.367912 0,-1.594283 -1.64538,-2.258568 -2.76955,-2.258568 -1.20594,0 -3.00462,0.705164 -3.00462,2.585601 0,1.880437 1.46143,2.667359 2.9944,2.667359 z m -2.46297,-3.117029 c 0.32703,-1.216152 1.34901,-1.635162 2.4834,-1.635162 1.01176,0 2.15638,0.531428 2.28923,1.635162 z" />
        <path
           inkscape:connector-curvature="0"
           id="path2253"
           style="font-style:normal;font-variant:normal;font-weight:200;font-stretch:normal;font-size:10.21976471px;font-family:Supra;-inkscape-font-specification:'Supra, Ultra-Light';font-variant-ligatures:normal;font-variant-caps:normal;font-variant-numeric:normal;font-feature-settings:normal;text-align:start;writing-mode:lr-tb;text-anchor:start;fill:#cb121d;fill-opacity:1;stroke:#cb121d;stroke-width:0.40000001;stroke-miterlimit:4;stroke-dasharray:none;stroke-opacity:1"
           d="m 144.64821,68.387267 c 0.1022,0 0.28615,0.02044 0.38835,0.02044 0.74604,0 1.45121,-0.480329 1.6045,-1.205933 0.0511,-0.265713 0.0613,-0.551867 0.0613,-0.84824 v -5.590211 h -0.48033 v 5.447134 c 0,0.255494 0,0.582527 -0.0511,0.88912 -0.092,0.562087 -0.6234,0.84824 -1.13439,0.84824 -0.11242,0 -0.26572,-0.01022 -0.38835,-0.02044 z m 1.31835,-9.13647 c 0,0.214616 0.19417,0.388352 0.44967,0.388352 0.25549,0 0.45989,-0.173736 0.45989,-0.388352 0,-0.214615 -0.2044,-0.388351 -0.45989,-0.388351 -0.2555,0 -0.44967,0.173736 -0.44967,0.388351 z" />
        <path
           inkscape:connector-curvature="0"
           id="path2255"
           style="font-style:normal;font-variant:normal;font-weight:200;font-stretch:normal;font-size:10.21976471px;font-family:Supra;-inkscape-font-specification:'Supra, Ultra-Light';font-variant-ligatures:normal;font-variant-caps:normal;font-variant-numeric:normal;font-feature-settings:normal;text-align:start;writing-mode:lr-tb;text-anchor:start;fill:#cb121d;fill-opacity:1;stroke:#cb121d;stroke-width:0.40000001;stroke-miterlimit:4;stroke-dasharray:none;stroke-opacity:1"
           d="m 150.27594,65.883425 c 0.88912,0 2.36076,-0.265714 2.36076,-1.481866 0,-0.643845 -0.34747,-1.001537 -1.21615,-1.277471 l -1.10373,-0.347472 c -0.64385,-0.204395 -1.2366,-0.388351 -1.2366,-0.766482 0,-0.572307 0.80737,-0.8789 1.56363,-0.8789 0.66428,0 1.31835,0.143077 1.74758,0.337252 v -0.531427 c -0.41901,-0.183956 -1.19571,-0.296374 -1.73736,-0.296374 -1.04242,0 -2.06439,0.44967 -2.06439,1.359229 0,0.756263 0.6234,0.960658 1.31834,1.175273 l 1.2366,0.378131 c 0.76648,0.235055 1.01175,0.490549 1.01175,0.858461 0,0.664284 -0.99131,0.981097 -1.85999,0.981097 -0.67451,0 -1.40011,-0.224835 -1.90088,-0.500768 v 0.551867 c 0.51099,0.275934 1.30813,0.43945 1.88044,0.43945 z" />
        <path
           inkscape:connector-curvature="0"
           id="path2257"
           style="font-style:normal;font-variant:normal;font-weight:200;font-stretch:normal;font-size:10.21976471px;font-family:Supra;-inkscape-font-specification:'Supra, Ultra-Light';font-variant-ligatures:normal;font-variant-caps:normal;font-variant-numeric:normal;font-feature-settings:normal;text-align:start;writing-mode:lr-tb;text-anchor:start;fill:#cb121d;fill-opacity:1;stroke:#cb121d;stroke-width:0.40000001;stroke-miterlimit:4;stroke-dasharray:none;stroke-opacity:1"
           d="m 154.30461,65.781227 h 0.49055 v -2.442524 l 3.2601,2.442524 h 0.80736 l -3.60757,-2.708238 3.11702,-2.309666 h -0.78692 l -2.78999,2.074612 v -4.588674 h -0.49055 z" />
        <path
           inkscape:connector-curvature="0"
           id="path2259"
           style="font-style:normal;font-variant:normal;font-weight:200;font-stretch:normal;font-size:10.21976471px;font-family:Supra;-inkscape-font-specification:'Supra, Ultra-Light';font-variant-ligatures:normal;font-variant-caps:normal;font-variant-numeric:normal;font-feature-settings:normal;text-align:start;writing-mode:lr-tb;text-anchor:start;fill:#cb121d;fill-opacity:1;stroke:#cb121d;stroke-width:0.40000001;stroke-miterlimit:4;stroke-dasharray:none;stroke-opacity:1"
           d="m 159.95343,65.781227 h 0.48033 v -5.017904 h -0.48033 z m -0.21462,-6.53043 c 0,0.214616 0.19418,0.388352 0.44967,0.388352 0.2555,0 0.45989,-0.173736 0.45989,-0.388352 0,-0.214615 -0.20439,-0.388351 -0.45989,-0.388351 -0.25549,0 -0.44967,0.173736 -0.44967,0.388351 z" />
        <path
           inkscape:connector-curvature="0"
           id="path2261"
           style="font-style:normal;font-variant:normal;font-weight:200;font-stretch:normal;font-size:10.21976471px;font-family:Supra;-inkscape-font-specification:'Supra, Ultra-Light';font-variant-ligatures:normal;font-variant-caps:normal;font-variant-numeric:normal;font-feature-settings:normal;text-align:start;writing-mode:lr-tb;text-anchor:start;fill:#cb121d;fill-opacity:1;stroke:#cb121d;stroke-width:0.40000001;stroke-miterlimit:4;stroke-dasharray:none;stroke-opacity:1"
           d="m 164.96062,65.893645 c 1.13439,0 2.34033,-0.45989 2.52428,-0.694944 v -0.592747 c -0.37813,0.347472 -1.22637,0.797142 -2.42208,0.797142 -1.23659,0 -2.5856,-0.480329 -2.5856,-2.135931 h 5.25296 c 0.0102,-0.08176 0.0102,-0.286153 0.0102,-0.367912 0,-1.594283 -1.64539,-2.258568 -2.76956,-2.258568 -1.20593,0 -3.00461,0.705164 -3.00461,2.585601 0,1.880437 1.46143,2.667359 2.99439,2.667359 z m -2.46296,-3.117029 c 0.32703,-1.216152 1.34901,-1.635162 2.4834,-1.635162 1.01176,0 2.15637,0.531428 2.28923,1.635162 z" />
        <path
           inkscape:connector-curvature="0"
           id="path2263"
           style="font-style:normal;font-variant:normal;font-weight:200;font-stretch:normal;font-size:10.21976471px;font-family:Supra;-inkscape-font-specification:'Supra, Ultra-Light';font-variant-ligatures:normal;font-variant-caps:normal;font-variant-numeric:normal;font-feature-settings:normal;text-align:start;writing-mode:lr-tb;text-anchor:start;fill:#cb121d;fill-opacity:1;stroke:#cb121d;stroke-width:0.40000001;stroke-miterlimit:4;stroke-dasharray:none;stroke-opacity:1"
           d="m 167.78239,68.387267 c 0.1022,0 0.28616,0.02044 0.38835,0.02044 0.74605,0 1.45121,-0.480329 1.60451,-1.205933 0.0511,-0.265713 0.0613,-0.551867 0.0613,-0.84824 v -5.590211 h -0.48033 v 5.447134 c 0,0.255494 0,0.582527 -0.0511,0.88912 -0.092,0.562087 -0.62341,0.84824 -1.1344,0.84824 -0.11241,0 -0.26571,-0.01022 -0.38835,-0.02044 z m 1.31835,-9.13647 c 0,0.214616 0.19418,0.388352 0.44967,0.388352 0.2555,0 0.45989,-0.173736 0.45989,-0.388352 0,-0.214615 -0.20439,-0.388351 -0.45989,-0.388351 -0.25549,0 -0.44967,0.173736 -0.44967,0.388351 z" />
      </g>
    </g>
  </g>
</svg>
